<svg width="25" height="57" xmlns="http://www.w3.org/2000/svg"><path fill="none" d="M-1-1h27v59H-1z"/><g><path stroke="#fff" d="M17.9 1.1c1.1 0 2.1.303 2.9.809 1 .505 1.8 1.314 2.3 2.324.5.91.8 2.022.8 3.235 0 .707-.1 1.314-.3 1.92-1 4.75-9.1 10.411-11.2 11.826C10.4 19.8 2.3 14.14 1.3 9.49 1.1 8.782 1 8.074 1 7.367c0-1.213.3-2.224.8-3.235.6-1.01 1.4-1.82 2.3-2.324C5 1.403 6 1.1 7.1 1.1c1.9 0 3.6.91 4.7 2.325.3.404.5.808.8 1.213.2-.405.5-.809.8-1.213 1-1.415 2.7-2.325 4.5-2.325h0z" fill="#ff3c00" stroke-width="1.941"/><path stroke="#fff" d="M18.043 35c1.1 0 2.1.3 2.9.8 1 .5 1.8 1.3 2.3 2.3.5.9.8 2 .8 3.2 0 .7-.1 1.3-.3 1.9-1 4.7-9.1 10.3-11.2 11.7-2.1-1.4-10.2-7-11.2-11.6-.2-.7-.3-1.3-.3-2 0-1.2.3-2.2.8-3.2.6-1 1.4-1.8 2.3-2.3 1-.5 2-.8 3.1-.8 1.9 0 3.6.9 4.7 2.3.3.4.5.8.8 1.2.2-.4.5-.8.8-1.2 1-1.4 2.7-2.3 4.5-2.3h0z" fill="#212c3a" fill-opacity=".297" stroke-width="1.941"/></g></svg>

